<?xml version="1.0" encoding="UTF-8" standalone="no"?>
<!-- Generated by graphviz version 2.38.0 (20140413.2041)
 -->

<!-- Title: g Pages: 1 -->

<svg
   xmlns:dc="http://purl.org/dc/elements/1.1/"
   xmlns:cc="http://creativecommons.org/ns#"
   xmlns:rdf="http://www.w3.org/1999/02/22-rdf-syntax-ns#"
   xmlns:svg="http://www.w3.org/2000/svg"
   xmlns="http://www.w3.org/2000/svg"
   xmlns:sodipodi="http://sodipodi.sourceforge.net/DTD/sodipodi-0.dtd"
   xmlns:inkscape="http://www.inkscape.org/namespaces/inkscape"
   width="264pt"
   height="336pt"
   viewBox="0.00 0.00 263.95 335.80"
   id="svg3187"
   version="1.1"
   inkscape:version="0.48.2 r9819"
   sodipodi:docname="a.svg"
   inkscape:export-filename="/Users/jongman/git/typ/code/hld/hld1.png"
   inkscape:export-xdpi="90"
   inkscape:export-ydpi="90">
  <metadata
     id="metadata3349">
    <rdf:RDF>
      <cc:Work
         rdf:about="">
        <dc:format>image/svg+xml</dc:format>
        <dc:type
           rdf:resource="http://purl.org/dc/dcmitype/StillImage" />
        <dc:title></dc:title>
      </cc:Work>
    </rdf:RDF>
  </metadata>
  <defs
     id="defs3347" />
  <sodipodi:namedview
     pagecolor="#ffffff"
     bordercolor="#666666"
     borderopacity="1"
     objecttolerance="10"
     gridtolerance="10"
     guidetolerance="10"
     inkscape:pageopacity="0"
     inkscape:pageshadow="2"
     inkscape:window-width="640"
     inkscape:window-height="480"
     id="namedview3345"
     showgrid="false"
     inkscape:zoom="1.5190476"
     inkscape:cx="165"
     inkscape:cy="210"
     inkscape:window-x="0"
     inkscape:window-y="0"
     inkscape:window-maximized="0"
     inkscape:current-layer="svg3187" />
  <g
     id="graph0"
     class="graph"
     transform="scale(1 1) rotate(0) translate(4 331.801)">
    <title
       id="title3190">g</title>
    <polygon
       fill="white"
       stroke="none"
       points="-4,4 -4,-331.801 259.95,-331.801 259.95,4 -4,4"
       id="polygon3192" />
    <!-- 0 -->
    <g
       id="node1"
       class="node">
      <title
         id="title3195">0</title>
      <ellipse
         fill="none"
         stroke="black"
         cx="153"
         cy="-309.801"
         rx="18"
         ry="18"
         id="ellipse3197"
         d="m 171,-309.80099 c 0,9.94112 -8.05887,18 -18,18 -9.94113,0 -18,-8.05888 -18,-18 0,-9.94113 8.05887,-18 18,-18 9.94113,0 18,8.05887 18,18 z" />
      <text
         text-anchor="middle"
         x="153"
         y="-305.601"
         font-family="Times,serif"
         font-size="14.00"
         id="text3199">0</text>
    </g>
    <!-- 1 -->
    <g
       id="node2"
       class="node">
      <title
         id="title3202">1</title>
      <ellipse
         fill="none"
         stroke="black"
         cx="126"
         cy="-236.851"
         rx="18"
         ry="18"
         id="ellipse3204"
         d="m 144,-236.851 c 0,9.94113 -8.05887,18 -18,18 -9.94113,0 -18,-8.05887 -18,-18 0,-9.94112 8.05887,-18 18,-18 9.94113,0 18,8.05888 18,18 z" />
      <text
         text-anchor="middle"
         x="126"
         y="-232.651"
         font-family="Times,serif"
         font-size="14.00"
         id="text3206">1</text>
    </g>
    <!-- 0&#45;&#45;1 -->
    <g
       id="edge1"
       class="edge">
      <title
         id="title3209">0--1</title>
      <path
         fill="none"
         stroke="black"
         d="M146.873,-292.701C142.455,-281.09 136.516,-265.484 132.102,-253.887"
         id="path3211" />
    </g>
    <!-- 10 -->
    <g
       id="node11"
       class="node">
      <title
         id="title3214">10</title>
      <ellipse
         fill="none"
         stroke="black"
         cx="181"
         cy="-236.851"
         rx="18.9007"
         ry="18.9007"
         id="ellipse3216"
         d="m 199.9007,-236.851 c 0,10.43857 -8.46213,18.9007 -18.9007,18.9007 -10.43857,0 -18.9007,-8.46213 -18.9007,-18.9007 0,-10.43857 8.46213,-18.9007 18.9007,-18.9007 10.43857,0 18.9007,8.46213 18.9007,18.9007 z" />
      <text
         text-anchor="middle"
         x="181"
         y="-232.651"
         font-family="Times,serif"
         font-size="14.00"
         id="text3218">10</text>
    </g>
    <!-- 0&#45;&#45;10 -->
    <g
       id="edge10"
       class="edge">
      <title
         id="title3221">0--10</title>
      <path
         fill="none"
         stroke="black"
         d="M159.354,-292.701C163.807,-281.417 169.749,-266.36 174.281,-254.876"
         id="path3223" />
    </g>
    <!-- 2 -->
    <g
       id="node3"
       class="node">
      <title
         id="title3226">2</title>
      <ellipse
         fill="none"
         stroke="black"
         cx="72"
         cy="-162.95"
         rx="18"
         ry="18"
         id="ellipse3228"
         d="m 90,-162.95 c 0,9.94113 -8.058875,18 -18,18 -9.941125,0 -18,-8.05887 -18,-18 0,-9.94112 8.058875,-18 18,-18 9.941125,0 18,8.05888 18,18 z" />
      <text
         text-anchor="middle"
         x="72"
         y="-158.75"
         font-family="Times,serif"
         font-size="14.00"
         id="text3230">2</text>
    </g>
    <!-- 1&#45;&#45;2 -->
    <g
       id="edge2"
       class="edge">
      <title
         id="title3233">1--2</title>
      <path
         fill="none"
         stroke="black"
         d="M115.588,-221.988C106.026,-209.256 91.9318,-190.489 82.3798,-177.771"
         id="path3235" />
    </g>
    <!-- 6 -->
    <g
       id="node7"
       class="node">
      <title
         id="title3238">6</title>
      <ellipse
         fill="none"
         stroke="black"
         cx="126"
         cy="-162.95"
         rx="18"
         ry="18"
         id="ellipse3240"
         d="m 144,-162.95 c 0,9.94113 -8.05887,18 -18,18 -9.94113,0 -18,-8.05887 -18,-18 0,-9.94112 8.05887,-18 18,-18 9.94113,0 18,8.05888 18,18 z" />
      <text
         text-anchor="middle"
         x="126"
         y="-158.75"
         font-family="Times,serif"
         font-size="14.00"
         id="text3242">6</text>
    </g>
    <!-- 1&#45;&#45;6 -->
    <g
       id="edge6"
       class="edge">
      <title
         id="title3245">1--6</title>
      <path
         fill="none"
         stroke="black"
         d="M126,-218.811C126,-207.516 126,-192.739 126,-181.367"
         id="path3247" />
    </g>
    <!-- 3 -->
    <g
       id="node4"
       class="node">
      <title
         id="title3250">3</title>
      <ellipse
         fill="none"
         stroke="black"
         cx="18"
         cy="-90"
         rx="18"
         ry="18"
         id="ellipse3252"
         d="m 36,-90 c 0,9.941125 -8.058875,18 -18,18 -9.9411255,0 -18,-8.058875 -18,-18 0,-9.941125 8.0588745,-18 18,-18 9.941125,0 18,8.058875 18,18 z" />
      <text
         text-anchor="middle"
         x="18"
         y="-85.8"
         font-family="Times,serif"
         font-size="14.00"
         id="text3254">3</text>
    </g>
    <!-- 2&#45;&#45;3 -->
    <g
       id="edge3"
       class="edge">
      <title
         id="title3257">2--3</title>
      <path
         fill="none"
         stroke="black"
         d="M61.3313,-147.933C51.8644,-135.494 38.1067,-117.418 28.6465,-104.988"
         id="path3259" />
    </g>
    <!-- 4 -->
    <g
       id="node5"
       class="node">
      <title
         id="title3262">4</title>
      <ellipse
         fill="none"
         stroke="black"
         cx="72"
         cy="-90"
         rx="18"
         ry="18"
         id="ellipse3264"
         d="m 90,-90 c 0,9.941125 -8.058875,18 -18,18 -9.941125,0 -18,-8.058875 -18,-18 0,-9.941125 8.058875,-18 18,-18 9.941125,0 18,8.058875 18,18 z" />
      <text
         text-anchor="middle"
         x="72"
         y="-85.8"
         font-family="Times,serif"
         font-size="14.00"
         id="text3266">4</text>
    </g>
    <!-- 2&#45;&#45;4 -->
    <g
       id="edge4"
       class="edge">
      <title
         id="title3269">2--4</title>
      <path
         fill="none"
         stroke="black"
         d="M72,-144.775C72,-133.62 72,-119.14 72,-108.017"
         id="path3271" />
    </g>
    <!-- 5 -->
    <g
       id="node6"
       class="node">
      <title
         id="title3274">5</title>
      <ellipse
         fill="none"
         stroke="black"
         cx="72"
         cy="-18"
         rx="18"
         ry="18"
         id="ellipse3276"
         d="M 90,-18 C 90,-8.0588745 81.941125,0 72,0 62.058875,0 54,-8.0588745 54,-18 c 0,-9.941125 8.058875,-18 18,-18 9.941125,0 18,8.058875 18,18 z" />
      <text
         text-anchor="middle"
         x="72"
         y="-13.8"
         font-family="Times,serif"
         font-size="14.00"
         id="text3278">5</text>
    </g>
    <!-- 4&#45;&#45;5 -->
    <g
       id="edge5"
       class="edge">
      <title
         id="title3281">4--5</title>
      <path
         fill="none"
         stroke="black"
         d="M72,-71.6966C72,-60.8463 72,-46.9167 72,-36.1043"
         id="path3283" />
    </g>
    <!-- 7 -->
    <g
       id="node8"
       class="node">
      <title
         id="title3286">7</title>
      <ellipse
         fill="none"
         stroke="black"
         cx="126"
         cy="-90"
         rx="18"
         ry="18"
         id="ellipse3288"
         d="m 144,-90 c 0,9.941125 -8.05887,18 -18,18 -9.94113,0 -18,-8.058875 -18,-18 0,-9.941125 8.05887,-18 18,-18 9.94113,0 18,8.058875 18,18 z" />
      <text
         text-anchor="middle"
         x="126"
         y="-85.8"
         font-family="Times,serif"
         font-size="14.00"
         id="text3290">7</text>
    </g>
    <!-- 6&#45;&#45;7 -->
    <g
       id="edge7"
       class="edge">
      <title
         id="title3293">6--7</title>
      <path
         fill="none"
         stroke="black"
         d="M126,-144.775C126,-133.62 126,-119.14 126,-108.017"
         id="path3295" />
    </g>
    <!-- 8 -->
    <g
       id="node9"
       class="node">
      <title
         id="title3298">8</title>
      <ellipse
         fill="none"
         stroke="black"
         cx="180"
         cy="-90"
         rx="18"
         ry="18"
         id="ellipse3300"
         d="m 198,-90 c 0,9.941125 -8.05887,18 -18,18 -9.94113,0 -18,-8.058875 -18,-18 0,-9.941125 8.05887,-18 18,-18 9.94113,0 18,8.058875 18,18 z" />
      <text
         text-anchor="middle"
         x="180"
         y="-85.8"
         font-family="Times,serif"
         font-size="14.00"
         id="text3302">8</text>
    </g>
    <!-- 6&#45;&#45;8 -->
    <g
       id="edge8"
       class="edge">
      <title
         id="title3305">6--8</title>
      <path
         fill="none"
         stroke="black"
         d="M136.669,-147.933C146.136,-135.494 159.893,-117.418 169.354,-104.988"
         id="path3307" />
    </g>
    <!-- 9 -->
    <g
       id="node10"
       class="node">
      <title
         id="title3310">9</title>
      <ellipse
         fill="none"
         stroke="black"
         cx="126"
         cy="-18"
         rx="18"
         ry="18"
         id="ellipse3312"
         d="m 144,-18 c 0,9.9411255 -8.05887,18 -18,18 -9.94113,0 -18,-8.0588745 -18,-18 0,-9.941125 8.05887,-18 18,-18 9.94113,0 18,8.058875 18,18 z" />
      <text
         text-anchor="middle"
         x="126"
         y="-13.8"
         font-family="Times,serif"
         font-size="14.00"
         id="text3314">9</text>
    </g>
    <!-- 7&#45;&#45;9 -->
    <g
       id="edge9"
       class="edge">
      <title
         id="title3317">7--9</title>
      <path
         fill="none"
         stroke="black"
         d="M126,-71.6966C126,-60.8463 126,-46.9167 126,-36.1043"
         id="path3319" />
    </g>
    <!-- 11 -->
    <g
       id="node12"
       class="node">
      <title
         id="title3322">11</title>
      <ellipse
         fill="none"
         stroke="black"
         cx="181"
         cy="-162.95"
         rx="18.7537"
         ry="18.7537"
         id="ellipse3324"
         d="m 199.7537,-162.95 c 0,10.35739 -8.39632,18.7537 -18.7537,18.7537 -10.35738,0 -18.7537,-8.39631 -18.7537,-18.7537 0,-10.35738 8.39632,-18.7537 18.7537,-18.7537 10.35738,0 18.7537,8.39632 18.7537,18.7537 z" />
      <text
         text-anchor="middle"
         x="181"
         y="-158.75"
         font-family="Times,serif"
         font-size="14.00"
         id="text3326">11</text>
    </g>
    <!-- 10&#45;&#45;11 -->
    <g
       id="edge11"
       class="edge">
      <title
         id="title3329">10--11</title>
      <path
         fill="none"
         stroke="black"
         d="M181,-217.707C181,-206.725 181,-192.775 181,-181.839"
         id="path3331" />
    </g>
    <!-- 12 -->
    <g
       id="node13"
       class="node">
      <title
         id="title3334">12</title>
      <ellipse
         fill="none"
         stroke="black"
         cx="237"
         cy="-162.95"
         rx="18.9007"
         ry="18.9007"
         id="ellipse3336"
         d="m 255.9007,-162.95 c 0,10.43857 -8.46213,18.9007 -18.9007,18.9007 -10.43857,0 -18.9007,-8.46213 -18.9007,-18.9007 0,-10.43857 8.46213,-18.9007 18.9007,-18.9007 10.43857,0 18.9007,8.46213 18.9007,18.9007 z" />
      <text
         text-anchor="middle"
         x="237"
         y="-158.75"
         font-family="Times,serif"
         font-size="14.00"
         id="text3338">12</text>
    </g>
    <!-- 10&#45;&#45;12 -->
    <g
       id="edge12"
       class="edge">
      <title
         id="title3341">10--12</title>
      <path
         fill="none"
         stroke="black"
         d="M192.332,-221.301C202.048,-208.826 215.974,-190.947 225.684,-178.479"
         id="path3343" />
    </g>
  </g>
</svg>
