<?xml version="1.0" encoding="UTF-8" standalone="no"?>
<!-- Generated by graphviz version 2.38.0 (20140413.2041)
 -->

<!-- Title: g Pages: 1 -->

<svg
   xmlns:dc="http://purl.org/dc/elements/1.1/"
   xmlns:cc="http://creativecommons.org/ns#"
   xmlns:rdf="http://www.w3.org/1999/02/22-rdf-syntax-ns#"
   xmlns:svg="http://www.w3.org/2000/svg"
   xmlns="http://www.w3.org/2000/svg"
   xmlns:sodipodi="http://sodipodi.sourceforge.net/DTD/sodipodi-0.dtd"
   xmlns:inkscape="http://www.inkscape.org/namespaces/inkscape"
   width="260pt"
   height="334pt"
   viewBox="0.00 0.00 260.00 333.90"
   id="svg3553"
   version="1.1"
   inkscape:version="0.48.2 r9819"
   sodipodi:docname="b.svg"
   inkscape:export-filename="/Users/jongman/git/typ/code/hld/hld2.png"
   inkscape:export-xdpi="90"
   inkscape:export-ydpi="90">
  <metadata
     id="metadata3715">
    <rdf:RDF>
      <cc:Work
         rdf:about="">
        <dc:format>image/svg+xml</dc:format>
        <dc:type
           rdf:resource="http://purl.org/dc/dcmitype/StillImage" />
        <dc:title></dc:title>
      </cc:Work>
    </rdf:RDF>
  </metadata>
  <defs
     id="defs3713" />
  <sodipodi:namedview
     pagecolor="#ffffff"
     bordercolor="#666666"
     borderopacity="1"
     objecttolerance="10"
     gridtolerance="10"
     guidetolerance="10"
     inkscape:pageopacity="0"
     inkscape:pageshadow="2"
     inkscape:window-width="640"
     inkscape:window-height="480"
     id="namedview3711"
     showgrid="false"
     inkscape:zoom="0.56526946"
     inkscape:cx="162.5"
     inkscape:cy="208.75"
     inkscape:window-x="0"
     inkscape:window-y="0"
     inkscape:window-maximized="0"
     inkscape:current-layer="svg3553" />
  <g
     id="graph0"
     class="graph"
     transform="scale(1 1) rotate(0) translate(4 329.901)">
    <title
       id="title3556">g</title>
    <polygon
       fill="white"
       stroke="none"
       points="-4,4 -4,-329.901 256,-329.901 256,4 -4,4"
       id="polygon3558" />
    <!-- 0 -->
    <g
       id="node1"
       class="node">
      <title
         id="title3561">0</title>
      <ellipse
         fill="none"
         stroke="black"
         cx="153"
         cy="-306.95"
         rx="18.9007"
         ry="18.9007"
         id="ellipse3563"
         d="m 171.9007,-306.95001 c 0,10.43857 -8.46213,18.9007 -18.9007,18.9007 -10.43857,0 -18.9007,-8.46213 -18.9007,-18.9007 0,-10.43857 8.46213,-18.9007 18.9007,-18.9007 10.43857,0 18.9007,8.46213 18.9007,18.9007 z" />
      <text
         text-anchor="middle"
         x="153"
         y="-302.75"
         font-family="Times,serif"
         font-size="14.00"
         id="text3565">13</text>
    </g>
    <!-- 1 -->
    <g
       id="node2"
       class="node">
      <title
         id="title3568">1</title>
      <ellipse
         fill="none"
         stroke="black"
         cx="126"
         cy="-234"
         rx="18"
         ry="18"
         id="ellipse3570"
         d="m 144,-234 c 0,9.94113 -8.05887,18 -18,18 -9.94113,0 -18,-8.05887 -18,-18 0,-9.94113 8.05887,-18 18,-18 9.94113,0 18,8.05887 18,18 z" />
      <text
         text-anchor="middle"
         x="126"
         y="-229.8"
         font-family="Times,serif"
         font-size="14.00"
         id="text3572">9</text>
    </g>
    <!-- 0&#45;&#45;1 -->
    <g
       id="edge1"
       class="edge">
      <title
         id="title3575">0--1</title>
      <path
         fill="none"
         stroke="black"
         stroke-width="4"
         d="M146.464,-288.775C142.094,-277.292 136.384,-262.286 132.106,-251.044"
         id="path3577" />
    </g>
    <!-- 10 -->
    <g
       id="node11"
       class="node">
      <title
         id="title3580">10</title>
      <ellipse
         fill="none"
         stroke="black"
         cx="180"
         cy="-234"
         rx="18"
         ry="18"
         id="ellipse3582"
         d="m 198,-234 c 0,9.94113 -8.05887,18 -18,18 -9.94113,0 -18,-8.05887 -18,-18 0,-9.94113 8.05887,-18 18,-18 9.94113,0 18,8.05887 18,18 z" />
      <text
         text-anchor="middle"
         x="180"
         y="-229.8"
         font-family="Times,serif"
         font-size="14.00"
         id="text3584">3</text>
    </g>
    <!-- 0&#45;&#45;10 -->
    <g
       id="edge10"
       class="edge">
      <title
         id="title3587">0--10</title>
      <path
         fill="none"
         stroke="black"
         d="M159.536,-288.775C163.906,-277.292 169.616,-262.286 173.894,-251.044"
         id="path3589" />
    </g>
    <!-- 2 -->
    <g
       id="node3"
       class="node">
      <title
         id="title3592">2</title>
      <ellipse
         fill="none"
         stroke="black"
         cx="72"
         cy="-162"
         rx="18"
         ry="18"
         id="ellipse3594"
         d="m 90,-162 c 0,9.94113 -8.058875,18 -18,18 -9.941125,0 -18,-8.05887 -18,-18 0,-9.94113 8.058875,-18 18,-18 9.941125,0 18,8.05887 18,18 z" />
      <text
         text-anchor="middle"
         x="72"
         y="-157.8"
         font-family="Times,serif"
         font-size="14.00"
         id="text3596">4</text>
    </g>
    <!-- 1&#45;&#45;2 -->
    <g
       id="edge2"
       class="edge">
      <title
         id="title3599">1--2</title>
      <path
         fill="none"
         stroke="black"
         d="M115.331,-219.17C105.864,-206.898 92.1067,-189.064 82.6465,-176.801"
         id="path3601" />
    </g>
    <!-- 6 -->
    <g
       id="node7"
       class="node">
      <title
         id="title3604">6</title>
      <ellipse
         fill="none"
         stroke="black"
         cx="126"
         cy="-162"
         rx="18"
         ry="18"
         id="ellipse3606"
         d="m 144,-162 c 0,9.94113 -8.05887,18 -18,18 -9.94113,0 -18,-8.05887 -18,-18 0,-9.94113 8.05887,-18 18,-18 9.94113,0 18,8.05887 18,18 z" />
      <text
         text-anchor="middle"
         x="126"
         y="-157.8"
         font-family="Times,serif"
         font-size="14.00"
         id="text3608">4</text>
    </g>
    <!-- 1&#45;&#45;6 -->
    <g
       id="edge6"
       class="edge">
      <title
         id="title3611">1--6</title>
      <path
         fill="none"
         stroke="black"
         d="M126,-215.697C126,-204.846 126,-190.917 126,-180.104"
         id="path3613" />
    </g>
    <!-- 3 -->
    <g
       id="node4"
       class="node">
      <title
         id="title3616">3</title>
      <ellipse
         fill="none"
         stroke="black"
         cx="18"
         cy="-90"
         rx="18"
         ry="18"
         id="ellipse3618"
         d="m 36,-90 c 0,9.941125 -8.058875,18 -18,18 -9.9411255,0 -18,-8.058875 -18,-18 0,-9.941125 8.0588745,-18 18,-18 9.941125,0 18,8.058875 18,18 z" />
      <text
         text-anchor="middle"
         x="18"
         y="-85.8"
         font-family="Times,serif"
         font-size="14.00"
         id="text3620">1</text>
    </g>
    <!-- 2&#45;&#45;3 -->
    <g
       id="edge3"
       class="edge">
      <title
         id="title3623">2--3</title>
      <path
         fill="none"
         stroke="black"
         d="M61.3313,-147.17C51.8644,-134.898 38.1067,-117.064 28.6465,-104.801"
         id="path3625" />
    </g>
    <!-- 4 -->
    <g
       id="node5"
       class="node">
      <title
         id="title3628">4</title>
      <ellipse
         fill="none"
         stroke="black"
         cx="72"
         cy="-90"
         rx="18"
         ry="18"
         id="ellipse3630"
         d="m 90,-90 c 0,9.941125 -8.058875,18 -18,18 -9.941125,0 -18,-8.058875 -18,-18 0,-9.941125 8.058875,-18 18,-18 9.941125,0 18,8.058875 18,18 z" />
      <text
         text-anchor="middle"
         x="72"
         y="-85.8"
         font-family="Times,serif"
         font-size="14.00"
         id="text3632">2</text>
    </g>
    <!-- 2&#45;&#45;4 -->
    <g
       id="edge4"
       class="edge">
      <title
         id="title3635">2--4</title>
      <path
         fill="none"
         stroke="black"
         stroke-width="4"
         d="M72,-143.697C72,-132.846 72,-118.917 72,-108.104"
         id="path3637" />
    </g>
    <!-- 5 -->
    <g
       id="node6"
       class="node">
      <title
         id="title3640">5</title>
      <ellipse
         fill="none"
         stroke="black"
         cx="72"
         cy="-18"
         rx="18"
         ry="18"
         id="ellipse3642"
         d="M 90,-18 C 90,-8.0588745 81.941125,0 72,0 62.058875,0 54,-8.0588745 54,-18 c 0,-9.941125 8.058875,-18 18,-18 9.941125,0 18,8.058875 18,18 z" />
      <text
         text-anchor="middle"
         x="72"
         y="-13.8"
         font-family="Times,serif"
         font-size="14.00"
         id="text3644">1</text>
    </g>
    <!-- 4&#45;&#45;5 -->
    <g
       id="edge5"
       class="edge">
      <title
         id="title3647">4--5</title>
      <path
         fill="none"
         stroke="black"
         stroke-width="4"
         d="M72,-71.6966C72,-60.8463 72,-46.9167 72,-36.1043"
         id="path3649" />
    </g>
    <!-- 7 -->
    <g
       id="node8"
       class="node">
      <title
         id="title3652">7</title>
      <ellipse
         fill="none"
         stroke="black"
         cx="126"
         cy="-90"
         rx="18"
         ry="18"
         id="ellipse3654"
         d="m 144,-90 c 0,9.941125 -8.05887,18 -18,18 -9.94113,0 -18,-8.058875 -18,-18 0,-9.941125 8.05887,-18 18,-18 9.94113,0 18,8.058875 18,18 z" />
      <text
         text-anchor="middle"
         x="126"
         y="-85.8"
         font-family="Times,serif"
         font-size="14.00"
         id="text3656">2</text>
    </g>
    <!-- 6&#45;&#45;7 -->
    <g
       id="edge7"
       class="edge">
      <title
         id="title3659">6--7</title>
      <path
         fill="none"
         stroke="black"
         stroke-width="4"
         d="M126,-143.697C126,-132.846 126,-118.917 126,-108.104"
         id="path3661" />
    </g>
    <!-- 8 -->
    <g
       id="node9"
       class="node">
      <title
         id="title3664">8</title>
      <ellipse
         fill="none"
         stroke="black"
         cx="180"
         cy="-90"
         rx="18"
         ry="18"
         id="ellipse3666"
         d="m 198,-90 c 0,9.941125 -8.05887,18 -18,18 -9.94113,0 -18,-8.058875 -18,-18 0,-9.941125 8.05887,-18 18,-18 9.94113,0 18,8.058875 18,18 z" />
      <text
         text-anchor="middle"
         x="180"
         y="-85.8"
         font-family="Times,serif"
         font-size="14.00"
         id="text3668">1</text>
    </g>
    <!-- 6&#45;&#45;8 -->
    <g
       id="edge8"
       class="edge">
      <title
         id="title3671">6--8</title>
      <path
         fill="none"
         stroke="black"
         d="M136.669,-147.17C146.136,-134.898 159.893,-117.064 169.354,-104.801"
         id="path3673" />
    </g>
    <!-- 9 -->
    <g
       id="node10"
       class="node">
      <title
         id="title3676">9</title>
      <ellipse
         fill="none"
         stroke="black"
         cx="126"
         cy="-18"
         rx="18"
         ry="18"
         id="ellipse3678"
         d="m 144,-18 c 0,9.9411255 -8.05887,18 -18,18 -9.94113,0 -18,-8.0588745 -18,-18 0,-9.941125 8.05887,-18 18,-18 9.94113,0 18,8.058875 18,18 z" />
      <text
         text-anchor="middle"
         x="126"
         y="-13.8"
         font-family="Times,serif"
         font-size="14.00"
         id="text3680">1</text>
    </g>
    <!-- 7&#45;&#45;9 -->
    <g
       id="edge9"
       class="edge">
      <title
         id="title3683">7--9</title>
      <path
         fill="none"
         stroke="black"
         stroke-width="4"
         d="M126,-71.6966C126,-60.8463 126,-46.9167 126,-36.1043"
         id="path3685" />
    </g>
    <!-- 11 -->
    <g
       id="node12"
       class="node">
      <title
         id="title3688">11</title>
      <ellipse
         fill="none"
         stroke="black"
         cx="180"
         cy="-162"
         rx="18"
         ry="18"
         id="ellipse3690"
         d="m 198,-162 c 0,9.94113 -8.05887,18 -18,18 -9.94113,0 -18,-8.05887 -18,-18 0,-9.94113 8.05887,-18 18,-18 9.94113,0 18,8.05887 18,18 z" />
      <text
         text-anchor="middle"
         x="180"
         y="-157.8"
         font-family="Times,serif"
         font-size="14.00"
         id="text3692">1</text>
    </g>
    <!-- 10&#45;&#45;11 -->
    <g
       id="edge11"
       class="edge">
      <title
         id="title3695">10--11</title>
      <path
         fill="none"
         stroke="black"
         d="M180,-215.697C180,-204.846 180,-190.917 180,-180.104"
         id="path3697" />
    </g>
    <!-- 12 -->
    <g
       id="node13"
       class="node">
      <title
         id="title3700">12</title>
      <ellipse
         fill="none"
         stroke="black"
         cx="234"
         cy="-162"
         rx="18"
         ry="18"
         id="ellipse3702"
         d="m 252,-162 c 0,9.94113 -8.05887,18 -18,18 -9.94113,0 -18,-8.05887 -18,-18 0,-9.94113 8.05887,-18 18,-18 9.94113,0 18,8.05887 18,18 z" />
      <text
         text-anchor="middle"
         x="234"
         y="-157.8"
         font-family="Times,serif"
         font-size="14.00"
         id="text3704">1</text>
    </g>
    <!-- 10&#45;&#45;12 -->
    <g
       id="edge12"
       class="edge">
      <title
         id="title3707">10--12</title>
      <path
         fill="none"
         stroke="black"
         d="M190.669,-219.17C200.136,-206.898 213.893,-189.064 223.354,-176.801"
         id="path3709" />
    </g>
  </g>
</svg>
