<?xml version="1.0" encoding="UTF-8" standalone="no"?>
<!-- Generated by graphviz version 2.38.0 (20140413.2041)
 -->

<!-- Title: g Pages: 1 -->

<svg
   xmlns:dc="http://purl.org/dc/elements/1.1/"
   xmlns:cc="http://creativecommons.org/ns#"
   xmlns:rdf="http://www.w3.org/1999/02/22-rdf-syntax-ns#"
   xmlns:svg="http://www.w3.org/2000/svg"
   xmlns="http://www.w3.org/2000/svg"
   xmlns:sodipodi="http://sodipodi.sourceforge.net/DTD/sodipodi-0.dtd"
   xmlns:inkscape="http://www.inkscape.org/namespaces/inkscape"
   width="260pt"
   height="334pt"
   viewBox="0.00 0.00 260.00 333.90"
   id="svg3919"
   version="1.1"
   inkscape:version="0.48.2 r9819"
   sodipodi:docname="d.svg"
   inkscape:export-filename="/Users/jongman/git/typ/code/hld/hld4.png"
   inkscape:export-xdpi="90"
   inkscape:export-ydpi="90">
  <metadata
     id="metadata4081">
    <rdf:RDF>
      <cc:Work
         rdf:about="">
        <dc:format>image/svg+xml</dc:format>
        <dc:type
           rdf:resource="http://purl.org/dc/dcmitype/StillImage" />
        <dc:title></dc:title>
      </cc:Work>
    </rdf:RDF>
  </metadata>
  <defs
     id="defs4079" />
  <sodipodi:namedview
     pagecolor="#ffffff"
     bordercolor="#666666"
     borderopacity="1"
     objecttolerance="10"
     gridtolerance="10"
     guidetolerance="10"
     inkscape:pageopacity="0"
     inkscape:pageshadow="2"
     inkscape:window-width="1436"
     inkscape:window-height="856"
     id="namedview4077"
     showgrid="false"
     inkscape:zoom="0.90509668"
     inkscape:cx="-67.87036"
     inkscape:cy="93.063878"
     inkscape:window-x="0"
     inkscape:window-y="0"
     inkscape:window-maximized="1"
     inkscape:current-layer="svg3919" />
  <polygon
     style="fill:#ffffff;stroke:none"
     id="polygon3924"
     points="-4,4 -4,4 -4,-329.901 256,-329.901 256,4 "
     transform="translate(6.0149543,330.01935)" />
  <g
     class="node"
     id="node1"
     transform="translate(4,329.901)">
    <title
       id="title3927">0</title>
    <ellipse
       style="fill:none;stroke:#000000"
       sodipodi:ry="18.9007"
       sodipodi:rx="18.9007"
       sodipodi:cy="-306.95001"
       sodipodi:cx="153"
       id="ellipse3929"
       ry="18.9007"
       rx="18.9007"
       cy="-306.95001"
       cx="153"
       d="m 171.9007,-306.95001 c 0,10.43857 -8.46213,18.9007 -18.9007,18.9007 -10.43857,0 -18.9007,-8.46213 -18.9007,-18.9007 0,-10.43857 8.46213,-18.9007 18.9007,-18.9007 10.43857,0 18.9007,8.46213 18.9007,18.9007 z" />
    <text
       style="font-size:14px;text-anchor:middle;font-family:'Times,serif'"
       id="text3931"
       font-size="14.00"
       y="-302.75"
       x="153">13</text>
  </g>
  <g
     class="node"
     id="node2"
     transform="translate(4,329.901)">
    <title
       id="title3934">1</title>
    <ellipse
       style="fill:none;stroke:#000000"
       sodipodi:ry="18"
       sodipodi:rx="18"
       sodipodi:cy="-234"
       sodipodi:cx="126"
       id="ellipse3936"
       ry="18"
       rx="18"
       cy="-234"
       cx="126"
       d="m 144,-234 c 0,9.94113 -8.05887,18 -18,18 -9.94113,0 -18,-8.05887 -18,-18 0,-9.94113 8.05887,-18 18,-18 9.94113,0 18,8.05887 18,18 z" />
    <text
       style="font-size:14px;text-anchor:middle;font-family:'Times,serif'"
       id="text3938"
       font-size="14.00"
       y="-229.8"
       x="126">9</text>
  </g>
  <g
     class="edge"
     id="edge1"
     transform="translate(4,329.901)"
     style="fill:#ff0000;stroke:#ff0000;stroke-opacity:1">
    <title
       id="title3941">0--1</title>
    <path
       style="fill:#ff0000;stroke:#ff0000;stroke-width:4;stroke-opacity:1"
       inkscape:connector-curvature="0"
       id="path3943"
       d="m 146.464,-288.775 c -4.37,11.483 -10.08,26.489 -14.358,37.731" />
  </g>
  <g
     class="node"
     id="node11"
     transform="translate(4,329.901)">
    <title
       id="title3946">10</title>
    <ellipse
       style="fill:none;stroke:#000000"
       sodipodi:ry="18"
       sodipodi:rx="18"
       sodipodi:cy="-234"
       sodipodi:cx="180"
       id="ellipse3948"
       ry="18"
       rx="18"
       cy="-234"
       cx="180"
       d="m 198,-234 c 0,9.94113 -8.05887,18 -18,18 -9.94113,0 -18,-8.05887 -18,-18 0,-9.94113 8.05887,-18 18,-18 9.94113,0 18,8.05887 18,18 z" />
    <text
       style="font-size:14px;text-anchor:middle;font-family:'Times,serif'"
       id="text3950"
       font-size="14.00"
       y="-229.8"
       x="180">3</text>
  </g>
  <g
     class="edge"
     id="edge10"
     transform="translate(4,329.901)"
     style="stroke:#ff00ff;stroke-opacity:1">
    <title
       id="title3953">0--10</title>
    <path
       style="fill:none;stroke:#ff00ff;stroke-opacity:1"
       inkscape:connector-curvature="0"
       id="path3955"
       d="m 159.536,-288.775 c 4.37,11.483 10.08,26.489 14.358,37.731" />
  </g>
  <g
     class="node"
     id="node3"
     transform="translate(4,329.901)">
    <title
       id="title3958">2</title>
    <ellipse
       style="fill:none;stroke:#000000"
       sodipodi:ry="18"
       sodipodi:rx="18"
       sodipodi:cy="-162"
       sodipodi:cx="72"
       id="ellipse3960"
       ry="18"
       rx="18"
       cy="-162"
       cx="72"
       d="m 90,-162 c 0,9.94113 -8.058875,18 -18,18 -9.941125,0 -18,-8.05887 -18,-18 0,-9.94113 8.058875,-18 18,-18 9.941125,0 18,8.05887 18,18 z" />
    <text
       style="font-size:14px;text-anchor:middle;font-family:'Times,serif'"
       id="text3962"
       font-size="14.00"
       y="-157.8"
       x="72">4</text>
  </g>
  <g
     class="edge"
     id="edge2"
     transform="translate(4,329.901)"
     style="stroke:#0000ff;stroke-opacity:1">
    <title
       id="title3965">1--2</title>
    <path
       style="fill:none;stroke:#0000ff;stroke-opacity:1"
       inkscape:connector-curvature="0"
       id="path3967"
       d="m 115.331,-219.17 c -9.467,12.272 -23.2243,30.106 -32.6845,42.369" />
  </g>
  <g
     class="node"
     id="node7"
     transform="translate(4,329.901)">
    <title
       id="title3970">6</title>
    <ellipse
       style="fill:none;stroke:#000000"
       sodipodi:ry="18"
       sodipodi:rx="18"
       sodipodi:cy="-162"
       sodipodi:cx="126"
       id="ellipse3972"
       ry="18"
       rx="18"
       cy="-162"
       cx="126"
       d="m 144,-162 c 0,9.94113 -8.05887,18 -18,18 -9.94113,0 -18,-8.05887 -18,-18 0,-9.94113 8.05887,-18 18,-18 9.94113,0 18,8.05887 18,18 z" />
    <text
       style="font-size:14px;text-anchor:middle;font-family:'Times,serif'"
       id="text3974"
       font-size="14.00"
       y="-157.8"
       x="126">4</text>
  </g>
  <g
     class="edge"
     id="edge6"
     transform="translate(4,329.901)"
     style="stroke:#00ff00;stroke-opacity:1">
    <title
       id="title3977">1--6</title>
    <path
       style="fill:none;stroke:#00ff00;stroke-opacity:1"
       inkscape:connector-curvature="0"
       id="path3979"
       d="m 126,-215.697 c 0,10.851 0,24.78 0,35.593" />
  </g>
  <g
     class="node"
     id="node4"
     transform="translate(4,329.901)">
    <title
       id="title3982">3</title>
    <ellipse
       style="fill:none;stroke:#000000"
       sodipodi:ry="18"
       sodipodi:rx="18"
       sodipodi:cy="-90"
       sodipodi:cx="18"
       id="ellipse3984"
       ry="18"
       rx="18"
       cy="-90"
       cx="18"
       d="m 36,-90 c 0,9.941125 -8.058875,18 -18,18 -9.9411255,0 -18,-8.058875 -18,-18 0,-9.941125 8.0588745,-18 18,-18 9.941125,0 18,8.058875 18,18 z" />
    <text
       style="font-size:14px;text-anchor:middle;font-family:'Times,serif'"
       id="text3986"
       font-size="14.00"
       y="-85.800003"
       x="18">1</text>
  </g>
  <g
     class="edge"
     id="edge3"
     transform="translate(4,329.901)"
     style="stroke:#ffff00;stroke-opacity:1">
    <title
       id="title3989">2--3</title>
    <path
       style="fill:none;stroke:#ffff00;stroke-opacity:1"
       inkscape:connector-curvature="0"
       id="path3991"
       d="m 61.3313,-147.17 c -9.4669,12.272 -23.2246,30.106 -32.6848,42.369" />
  </g>
  <ellipse
     d="m 90,-90 c 0,9.941125 -8.058875,18 -18,18 -9.941125,0 -18,-8.058875 -18,-18 0,-9.941125 8.058875,-18 18,-18 9.941125,0 18,8.058875 18,18 z"
     cx="72"
     cy="-90"
     rx="18"
     ry="18"
     id="ellipse3996"
     sodipodi:cx="72"
     sodipodi:cy="-90"
     sodipodi:rx="18"
     sodipodi:ry="18"
     style="fill:#ffdedd;stroke:#000000;fill-opacity:1"
     transform="translate(4,329.901)" />
  <text
     x="76"
     y="244.101"
     font-size="14.00"
     id="text3998"
     style="font-size:14px;text-anchor:middle;font-family:'Times,serif'">2</text>
  <g
     class="edge"
     id="edge4"
     transform="translate(4,329.901)"
     style="fill:#0000ff;stroke:#0000ff;stroke-opacity:1">
    <title
       id="title4001">2--4</title>
    <path
       style="fill:#0000ff;stroke:#0000ff;stroke-width:4;stroke-opacity:1"
       inkscape:connector-curvature="0"
       id="path4003"
       d="m 72,-143.697 c 0,10.851 0,24.78 0,35.593" />
  </g>
  <g
     class="node"
     id="node6"
     transform="translate(4,329.901)">
    <title
       id="title4006">5</title>
    <ellipse
       style="fill:none;stroke:#000000"
       sodipodi:ry="18"
       sodipodi:rx="18"
       sodipodi:cy="-18"
       sodipodi:cx="72"
       id="ellipse4008"
       ry="18"
       rx="18"
       cy="-18"
       cx="72"
       d="M 90,-18 C 90,-8.0588745 81.941125,0 72,0 62.058875,0 54,-8.0588745 54,-18 c 0,-9.941125 8.058875,-18 18,-18 9.941125,0 18,8.058875 18,18 z" />
    <text
       style="font-size:14px;text-anchor:middle;font-family:'Times,serif'"
       id="text4010"
       font-size="14.00"
       y="-13.8"
       x="72">1</text>
  </g>
  <g
     class="edge"
     id="edge5"
     transform="translate(4,329.901)">
    <title
       id="title4013">4--5</title>
    <path
       style="fill:#0000ff;stroke:#0000ff;stroke-width:4;stroke-opacity:1"
       inkscape:connector-curvature="0"
       id="path4015"
       d="m 72,-71.6966 c 0,10.8503 0,24.7799 0,35.5923" />
  </g>
  <g
     class="node"
     id="node8"
     transform="translate(4,329.901)">
    <title
       id="title4018">7</title>
    <ellipse
       style="fill:none;stroke:#000000"
       sodipodi:ry="18"
       sodipodi:rx="18"
       sodipodi:cy="-90"
       sodipodi:cx="126"
       id="ellipse4020"
       ry="18"
       rx="18"
       cy="-90"
       cx="126"
       d="m 144,-90 c 0,9.941125 -8.05887,18 -18,18 -9.94113,0 -18,-8.058875 -18,-18 0,-9.941125 8.05887,-18 18,-18 9.94113,0 18,8.058875 18,18 z" />
    <text
       style="font-size:14px;text-anchor:middle;font-family:'Times,serif'"
       id="text4022"
       font-size="14.00"
       y="-85.800003"
       x="126">2</text>
  </g>
  <g
     class="edge"
     id="edge7"
     transform="translate(4,329.901)"
     style="stroke:#00ff00;stroke-opacity:1">
    <title
       id="title4025">6--7</title>
    <path
       style="fill:none;stroke:#00ff00;stroke-width:4;stroke-opacity:1"
       inkscape:connector-curvature="0"
       id="path4027"
       d="m 126,-143.697 c 0,10.851 0,24.78 0,35.593" />
  </g>
  <ellipse
     d="m 198,-90 c 0,9.941125 -8.05887,18 -18,18 -9.94113,0 -18,-8.058875 -18,-18 0,-9.941125 8.05887,-18 18,-18 9.94113,0 18,8.058875 18,18 z"
     cx="180"
     cy="-90"
     rx="18"
     ry="18"
     id="ellipse4032"
     sodipodi:cx="180"
     sodipodi:cy="-90"
     sodipodi:rx="18"
     sodipodi:ry="18"
     style="fill:#ffdedd;stroke:#000000;fill-opacity:1"
     transform="translate(4,329.901)" />
  <text
     x="184"
     y="244.101"
     font-size="14.00"
     id="text4034"
     style="font-size:14px;text-anchor:middle;font-family:'Times,serif'">1</text>
  <g
     class="edge"
     id="edge8"
     transform="translate(4,329.901)">
    <title
       id="title4037">6--8</title>
    <path
       style="fill:none;stroke:#80ffff;stroke-opacity:1"
       inkscape:connector-curvature="0"
       id="path4039"
       d="m 136.669,-147.17 c 9.467,12.272 23.224,30.106 32.685,42.369" />
  </g>
  <g
     class="node"
     id="node10"
     transform="translate(4,329.901)">
    <title
       id="title4042">9</title>
    <ellipse
       style="fill:none;stroke:#000000"
       sodipodi:ry="18"
       sodipodi:rx="18"
       sodipodi:cy="-18"
       sodipodi:cx="126"
       id="ellipse4044"
       ry="18"
       rx="18"
       cy="-18"
       cx="126"
       d="m 144,-18 c 0,9.9411255 -8.05887,18 -18,18 -9.94113,0 -18,-8.0588745 -18,-18 0,-9.941125 8.05887,-18 18,-18 9.94113,0 18,8.058875 18,18 z" />
    <text
       style="font-size:14px;text-anchor:middle;font-family:'Times,serif'"
       id="text4046"
       font-size="14.00"
       y="-13.8"
       x="126">1</text>
  </g>
  <g
     class="edge"
     id="edge9"
     transform="translate(4,329.901)"
     style="stroke:#00ff00;stroke-opacity:1">
    <title
       id="title4049">7--9</title>
    <path
       style="fill:none;stroke:#00ff00;stroke-width:4;stroke-opacity:1"
       inkscape:connector-curvature="0"
       id="path4051"
       d="m 126,-71.6966 c 0,10.8503 0,24.7799 0,35.5923" />
  </g>
  <g
     class="node"
     id="node12"
     transform="translate(4,329.901)">
    <title
       id="title4054">11</title>
    <ellipse
       style="fill:none;stroke:#000000"
       sodipodi:ry="18"
       sodipodi:rx="18"
       sodipodi:cy="-162"
       sodipodi:cx="180"
       id="ellipse4056"
       ry="18"
       rx="18"
       cy="-162"
       cx="180"
       d="m 198,-162 c 0,9.94113 -8.05887,18 -18,18 -9.94113,0 -18,-8.05887 -18,-18 0,-9.94113 8.05887,-18 18,-18 9.94113,0 18,8.05887 18,18 z" />
    <text
       style="font-size:14px;text-anchor:middle;font-family:'Times,serif'"
       id="text4058"
       font-size="14.00"
       y="-157.8"
       x="180">1</text>
  </g>
  <g
     class="edge"
     id="edge11"
     transform="translate(4,329.901)"
     style="stroke:#0080ff;stroke-opacity:1">
    <title
       id="title4061">10--11</title>
    <path
       style="fill:none;stroke:#0080ff;stroke-opacity:1"
       inkscape:connector-curvature="0"
       id="path4063"
       d="m 180,-215.697 c 0,10.851 0,24.78 0,35.593" />
  </g>
  <g
     class="node"
     id="node13"
     transform="translate(4,329.901)">
    <title
       id="title4066">12</title>
    <ellipse
       style="fill:none;stroke:#000000"
       sodipodi:ry="18"
       sodipodi:rx="18"
       sodipodi:cy="-162"
       sodipodi:cx="234"
       id="ellipse4068"
       ry="18"
       rx="18"
       cy="-162"
       cx="234"
       d="m 252,-162 c 0,9.94113 -8.05887,18 -18,18 -9.94113,0 -18,-8.05887 -18,-18 0,-9.94113 8.05887,-18 18,-18 9.94113,0 18,8.05887 18,18 z" />
    <text
       style="font-size:14px;text-anchor:middle;font-family:'Times,serif'"
       id="text4070"
       font-size="14.00"
       y="-157.8"
       x="234">1</text>
  </g>
  <g
     class="edge"
     id="edge12"
     transform="translate(4,329.901)"
     style="stroke:#ff741c;stroke-opacity:1">
    <title
       id="title4073">10--12</title>
    <path
       style="fill:none;stroke:#ff741c;stroke-opacity:1"
       inkscape:connector-curvature="0"
       id="path4075"
       d="m 190.669,-219.17 c 9.467,12.272 23.224,30.106 32.685,42.369" />
  </g>
</svg>
